<mxfile host="app.diagrams.net" modified="2020-04-28T03:37:32.143Z" agent="5.0 (Windows NT 10.0; Win64; x64) AppleWebKit/537.36 (KHTML, like Gecko) Chrome/81.0.4044.122 Safari/537.36" etag="gXmgvZoSoggKsDJgoP0s" version="13.0.2" type="github">
  <diagram id="yj3zYr8spW7JHfCcB2l8" name="Page-1">
    <mxGraphModel dx="1422" dy="762" grid="1" gridSize="10" guides="1" tooltips="1" connect="1" arrows="1" fold="1" page="1" pageScale="1" pageWidth="1169" pageHeight="827" math="0" shadow="0">
      <root>
        <mxCell id="0" />
        <mxCell id="1" parent="0" />
        <mxCell id="ii4RIzOAOJ3koOXMnqcN-28" style="edgeStyle=orthogonalEdgeStyle;rounded=0;orthogonalLoop=1;jettySize=auto;html=1;exitX=0;exitY=0.5;exitDx=0;exitDy=0;fontSize=12;" edge="1" parent="1" source="ii4RIzOAOJ3koOXMnqcN-19" target="ii4RIzOAOJ3koOXMnqcN-8">
          <mxGeometry relative="1" as="geometry" />
        </mxCell>
        <mxCell id="ii4RIzOAOJ3koOXMnqcN-29" style="edgeStyle=orthogonalEdgeStyle;rounded=0;orthogonalLoop=1;jettySize=auto;html=1;exitX=0;exitY=0.5;exitDx=0;exitDy=0;entryX=1;entryY=0.5;entryDx=0;entryDy=0;fontSize=12;" edge="1" parent="1" source="ii4RIzOAOJ3koOXMnqcN-25" target="ii4RIzOAOJ3koOXMnqcN-13">
          <mxGeometry relative="1" as="geometry" />
        </mxCell>
        <mxCell id="ii4RIzOAOJ3koOXMnqcN-30" style="edgeStyle=orthogonalEdgeStyle;rounded=0;orthogonalLoop=1;jettySize=auto;html=1;exitX=0;exitY=0.5;exitDx=0;exitDy=0;fontSize=12;" edge="1" parent="1" source="ii4RIzOAOJ3koOXMnqcN-24" target="ii4RIzOAOJ3koOXMnqcN-16">
          <mxGeometry relative="1" as="geometry">
            <mxPoint x="320" y="110" as="targetPoint" />
          </mxGeometry>
        </mxCell>
        <mxCell id="ii4RIzOAOJ3koOXMnqcN-31" style="edgeStyle=orthogonalEdgeStyle;rounded=0;orthogonalLoop=1;jettySize=auto;html=1;exitX=0;exitY=0.5;exitDx=0;exitDy=0;fontSize=12;" edge="1" parent="1" source="ii4RIzOAOJ3koOXMnqcN-18" target="ii4RIzOAOJ3koOXMnqcN-7">
          <mxGeometry relative="1" as="geometry" />
        </mxCell>
        <mxCell id="ii4RIzOAOJ3koOXMnqcN-39" style="edgeStyle=orthogonalEdgeStyle;rounded=0;orthogonalLoop=1;jettySize=auto;html=1;exitX=0.5;exitY=1;exitDx=0;exitDy=0;entryX=0;entryY=0.5;entryDx=0;entryDy=0;fontSize=12;" edge="1" parent="1" source="ii4RIzOAOJ3koOXMnqcN-35" target="ii4RIzOAOJ3koOXMnqcN-36">
          <mxGeometry relative="1" as="geometry" />
        </mxCell>
        <mxCell id="ii4RIzOAOJ3koOXMnqcN-40" style="edgeStyle=orthogonalEdgeStyle;rounded=0;orthogonalLoop=1;jettySize=auto;html=1;exitX=0.5;exitY=1;exitDx=0;exitDy=0;entryX=0;entryY=0.5;entryDx=0;entryDy=0;fontSize=12;" edge="1" parent="1" source="ii4RIzOAOJ3koOXMnqcN-35" target="ii4RIzOAOJ3koOXMnqcN-37">
          <mxGeometry relative="1" as="geometry" />
        </mxCell>
        <mxCell id="ii4RIzOAOJ3koOXMnqcN-35" value="enqueue_entity" style="rounded=1;whiteSpace=wrap;html=1;fontSize=12;" vertex="1" parent="1">
          <mxGeometry x="120" y="400" width="120" height="40" as="geometry" />
        </mxCell>
        <mxCell id="ii4RIzOAOJ3koOXMnqcN-46" style="edgeStyle=orthogonalEdgeStyle;rounded=0;orthogonalLoop=1;jettySize=auto;html=1;exitX=1;exitY=0.5;exitDx=0;exitDy=0;entryX=0;entryY=0.5;entryDx=0;entryDy=0;fontSize=12;" edge="1" parent="1" source="ii4RIzOAOJ3koOXMnqcN-36" target="ii4RIzOAOJ3koOXMnqcN-42">
          <mxGeometry relative="1" as="geometry" />
        </mxCell>
        <mxCell id="ii4RIzOAOJ3koOXMnqcN-47" style="edgeStyle=orthogonalEdgeStyle;rounded=0;orthogonalLoop=1;jettySize=auto;html=1;exitX=1;exitY=0.5;exitDx=0;exitDy=0;entryX=0;entryY=0.5;entryDx=0;entryDy=0;fontSize=12;" edge="1" parent="1" source="ii4RIzOAOJ3koOXMnqcN-36" target="ii4RIzOAOJ3koOXMnqcN-43">
          <mxGeometry relative="1" as="geometry" />
        </mxCell>
        <mxCell id="ii4RIzOAOJ3koOXMnqcN-48" style="edgeStyle=orthogonalEdgeStyle;rounded=0;orthogonalLoop=1;jettySize=auto;html=1;exitX=1;exitY=0.5;exitDx=0;exitDy=0;entryX=0;entryY=0.5;entryDx=0;entryDy=0;fontSize=12;" edge="1" parent="1" source="ii4RIzOAOJ3koOXMnqcN-36" target="ii4RIzOAOJ3koOXMnqcN-44">
          <mxGeometry relative="1" as="geometry" />
        </mxCell>
        <mxCell id="ii4RIzOAOJ3koOXMnqcN-36" value="enqueue_runnable_load_avg" style="rounded=1;whiteSpace=wrap;html=1;fontSize=12;" vertex="1" parent="1">
          <mxGeometry x="320" y="460" width="170" height="40" as="geometry" />
        </mxCell>
        <mxCell id="ii4RIzOAOJ3koOXMnqcN-41" style="edgeStyle=orthogonalEdgeStyle;rounded=0;orthogonalLoop=1;jettySize=auto;html=1;exitX=1;exitY=0.5;exitDx=0;exitDy=0;entryX=0;entryY=0.5;entryDx=0;entryDy=0;fontSize=12;" edge="1" parent="1" source="ii4RIzOAOJ3koOXMnqcN-37" target="ii4RIzOAOJ3koOXMnqcN-38">
          <mxGeometry relative="1" as="geometry" />
        </mxCell>
        <mxCell id="ii4RIzOAOJ3koOXMnqcN-37" value="account_entity_enqueue" style="rounded=1;whiteSpace=wrap;html=1;fontSize=12;" vertex="1" parent="1">
          <mxGeometry x="330" y="580" width="140" height="40" as="geometry" />
        </mxCell>
        <mxCell id="ii4RIzOAOJ3koOXMnqcN-49" style="edgeStyle=orthogonalEdgeStyle;rounded=0;orthogonalLoop=1;jettySize=auto;html=1;exitX=1;exitY=0.5;exitDx=0;exitDy=0;entryX=0;entryY=0.5;entryDx=0;entryDy=0;fontSize=12;" edge="1" parent="1" source="ii4RIzOAOJ3koOXMnqcN-38" target="ii4RIzOAOJ3koOXMnqcN-45">
          <mxGeometry relative="1" as="geometry" />
        </mxCell>
        <mxCell id="ii4RIzOAOJ3koOXMnqcN-38" value="update_load_add" style="rounded=1;whiteSpace=wrap;html=1;fontSize=12;" vertex="1" parent="1">
          <mxGeometry x="560" y="580" width="120" height="40" as="geometry" />
        </mxCell>
        <mxCell id="ii4RIzOAOJ3koOXMnqcN-42" value="cfs_rq-&amp;gt;runnable_weight += se-&amp;gt;runnable_weight;" style="rounded=1;whiteSpace=wrap;html=1;fontSize=12;align=left;" vertex="1" parent="1">
          <mxGeometry x="600" y="400" width="280" height="40" as="geometry" />
        </mxCell>
        <mxCell id="ii4RIzOAOJ3koOXMnqcN-43" value="cfs_rq-&amp;gt;avg.runnable_load_avg += se-&amp;gt;avg.runnable_load_avg;" style="rounded=1;whiteSpace=wrap;html=1;fontSize=12;align=left;" vertex="1" parent="1">
          <mxGeometry x="600" y="460" width="360" height="40" as="geometry" />
        </mxCell>
        <mxCell id="ii4RIzOAOJ3koOXMnqcN-44" value="cfs_rq-&amp;gt;avg.runnable_load_sum += se_runnable(se) * se-&amp;gt;avg.runnable_load_sum;" style="rounded=1;whiteSpace=wrap;html=1;fontSize=12;align=left;" vertex="1" parent="1">
          <mxGeometry x="600" y="520" width="460" height="40" as="geometry" />
        </mxCell>
        <mxCell id="ii4RIzOAOJ3koOXMnqcN-17" value="sched_entity" style="swimlane;fontStyle=0;childLayout=stackLayout;horizontal=1;startSize=26;fillColor=none;horizontalStack=0;resizeParent=1;resizeParentMax=0;resizeLast=0;collapsible=1;marginBottom=0;fontSize=12;" vertex="1" parent="1">
          <mxGeometry x="880" y="40" width="160" height="286" as="geometry" />
        </mxCell>
        <mxCell id="ii4RIzOAOJ3koOXMnqcN-18" value="+ load" style="text;strokeColor=none;fillColor=none;align=left;verticalAlign=top;spacingLeft=4;spacingRight=4;overflow=hidden;rotatable=0;points=[[0,0.5],[1,0.5]];portConstraint=eastwest;fontSize=12;" vertex="1" parent="ii4RIzOAOJ3koOXMnqcN-17">
          <mxGeometry y="26" width="160" height="26" as="geometry" />
        </mxCell>
        <mxCell id="ii4RIzOAOJ3koOXMnqcN-19" value="+ runnable_weight" style="text;strokeColor=none;fillColor=none;align=left;verticalAlign=top;spacingLeft=4;spacingRight=4;overflow=hidden;rotatable=0;points=[[0,0.5],[1,0.5]];portConstraint=eastwest;" vertex="1" parent="ii4RIzOAOJ3koOXMnqcN-17">
          <mxGeometry y="52" width="160" height="26" as="geometry" />
        </mxCell>
        <mxCell id="ii4RIzOAOJ3koOXMnqcN-20" value="+ avg.last_update_time" style="text;strokeColor=none;fillColor=none;align=left;verticalAlign=top;spacingLeft=4;spacingRight=4;overflow=hidden;rotatable=0;points=[[0,0.5],[1,0.5]];portConstraint=eastwest;" vertex="1" parent="ii4RIzOAOJ3koOXMnqcN-17">
          <mxGeometry y="78" width="160" height="26" as="geometry" />
        </mxCell>
        <mxCell id="ii4RIzOAOJ3koOXMnqcN-21" value="+ avg.period_contrib" style="text;strokeColor=none;fillColor=none;align=left;verticalAlign=top;spacingLeft=4;spacingRight=4;overflow=hidden;rotatable=0;points=[[0,0.5],[1,0.5]];portConstraint=eastwest;" vertex="1" parent="ii4RIzOAOJ3koOXMnqcN-17">
          <mxGeometry y="104" width="160" height="26" as="geometry" />
        </mxCell>
        <mxCell id="ii4RIzOAOJ3koOXMnqcN-22" value="+ avg.load_sum" style="text;strokeColor=none;fillColor=none;align=left;verticalAlign=top;spacingLeft=4;spacingRight=4;overflow=hidden;rotatable=0;points=[[0,0.5],[1,0.5]];portConstraint=eastwest;" vertex="1" parent="ii4RIzOAOJ3koOXMnqcN-17">
          <mxGeometry y="130" width="160" height="26" as="geometry" />
        </mxCell>
        <mxCell id="ii4RIzOAOJ3koOXMnqcN-23" value="+ avg.load_avg" style="text;strokeColor=none;fillColor=none;align=left;verticalAlign=top;spacingLeft=4;spacingRight=4;overflow=hidden;rotatable=0;points=[[0,0.5],[1,0.5]];portConstraint=eastwest;" vertex="1" parent="ii4RIzOAOJ3koOXMnqcN-17">
          <mxGeometry y="156" width="160" height="26" as="geometry" />
        </mxCell>
        <mxCell id="ii4RIzOAOJ3koOXMnqcN-24" value="+ avg.runnable_load_sum" style="text;strokeColor=none;fillColor=none;align=left;verticalAlign=top;spacingLeft=4;spacingRight=4;overflow=hidden;rotatable=0;points=[[0,0.5],[1,0.5]];portConstraint=eastwest;" vertex="1" parent="ii4RIzOAOJ3koOXMnqcN-17">
          <mxGeometry y="182" width="160" height="26" as="geometry" />
        </mxCell>
        <mxCell id="ii4RIzOAOJ3koOXMnqcN-25" value="+ avg.runnable_load_avg" style="text;strokeColor=none;fillColor=none;align=left;verticalAlign=top;spacingLeft=4;spacingRight=4;overflow=hidden;rotatable=0;points=[[0,0.5],[1,0.5]];portConstraint=eastwest;" vertex="1" parent="ii4RIzOAOJ3koOXMnqcN-17">
          <mxGeometry y="208" width="160" height="26" as="geometry" />
        </mxCell>
        <mxCell id="ii4RIzOAOJ3koOXMnqcN-26" value="+ avg.util_sum" style="text;strokeColor=none;fillColor=none;align=left;verticalAlign=top;spacingLeft=4;spacingRight=4;overflow=hidden;rotatable=0;points=[[0,0.5],[1,0.5]];portConstraint=eastwest;" vertex="1" parent="ii4RIzOAOJ3koOXMnqcN-17">
          <mxGeometry y="234" width="160" height="26" as="geometry" />
        </mxCell>
        <mxCell id="ii4RIzOAOJ3koOXMnqcN-27" value="+ avg.util_avg" style="text;strokeColor=none;fillColor=none;align=left;verticalAlign=top;spacingLeft=4;spacingRight=4;overflow=hidden;rotatable=0;points=[[0,0.5],[1,0.5]];portConstraint=eastwest;" vertex="1" parent="ii4RIzOAOJ3koOXMnqcN-17">
          <mxGeometry y="260" width="160" height="26" as="geometry" />
        </mxCell>
        <mxCell id="ii4RIzOAOJ3koOXMnqcN-6" value="CFS_RQ" style="swimlane;fontStyle=0;childLayout=stackLayout;horizontal=1;startSize=26;fillColor=none;horizontalStack=0;resizeParent=1;resizeParentMax=0;resizeLast=0;collapsible=1;marginBottom=0;" vertex="1" parent="1">
          <mxGeometry x="120" y="40" width="160" height="286" as="geometry" />
        </mxCell>
        <mxCell id="ii4RIzOAOJ3koOXMnqcN-7" value="+ load" style="text;strokeColor=none;fillColor=none;align=left;verticalAlign=top;spacingLeft=4;spacingRight=4;overflow=hidden;rotatable=0;points=[[0,0.5],[1,0.5]];portConstraint=eastwest;" vertex="1" parent="ii4RIzOAOJ3koOXMnqcN-6">
          <mxGeometry y="26" width="160" height="26" as="geometry" />
        </mxCell>
        <mxCell id="ii4RIzOAOJ3koOXMnqcN-8" value="+ runnable_weight" style="text;strokeColor=none;fillColor=none;align=left;verticalAlign=top;spacingLeft=4;spacingRight=4;overflow=hidden;rotatable=0;points=[[0,0.5],[1,0.5]];portConstraint=eastwest;" vertex="1" parent="ii4RIzOAOJ3koOXMnqcN-6">
          <mxGeometry y="52" width="160" height="26" as="geometry" />
        </mxCell>
        <mxCell id="ii4RIzOAOJ3koOXMnqcN-15" value="+ avg.last_update_time" style="text;strokeColor=none;fillColor=none;align=left;verticalAlign=top;spacingLeft=4;spacingRight=4;overflow=hidden;rotatable=0;points=[[0,0.5],[1,0.5]];portConstraint=eastwest;" vertex="1" parent="ii4RIzOAOJ3koOXMnqcN-6">
          <mxGeometry y="78" width="160" height="26" as="geometry" />
        </mxCell>
        <mxCell id="ii4RIzOAOJ3koOXMnqcN-14" value="+ avg.period_contrib" style="text;strokeColor=none;fillColor=none;align=left;verticalAlign=top;spacingLeft=4;spacingRight=4;overflow=hidden;rotatable=0;points=[[0,0.5],[1,0.5]];portConstraint=eastwest;" vertex="1" parent="ii4RIzOAOJ3koOXMnqcN-6">
          <mxGeometry y="104" width="160" height="26" as="geometry" />
        </mxCell>
        <mxCell id="ii4RIzOAOJ3koOXMnqcN-12" value="+ avg.load_sum" style="text;strokeColor=none;fillColor=none;align=left;verticalAlign=top;spacingLeft=4;spacingRight=4;overflow=hidden;rotatable=0;points=[[0,0.5],[1,0.5]];portConstraint=eastwest;" vertex="1" parent="ii4RIzOAOJ3koOXMnqcN-6">
          <mxGeometry y="130" width="160" height="26" as="geometry" />
        </mxCell>
        <mxCell id="ii4RIzOAOJ3koOXMnqcN-11" value="+ avg.load_avg" style="text;strokeColor=none;fillColor=none;align=left;verticalAlign=top;spacingLeft=4;spacingRight=4;overflow=hidden;rotatable=0;points=[[0,0.5],[1,0.5]];portConstraint=eastwest;" vertex="1" parent="ii4RIzOAOJ3koOXMnqcN-6">
          <mxGeometry y="156" width="160" height="26" as="geometry" />
        </mxCell>
        <mxCell id="ii4RIzOAOJ3koOXMnqcN-16" value="+ avg.runnable_load_sum" style="text;strokeColor=none;fillColor=none;align=left;verticalAlign=top;spacingLeft=4;spacingRight=4;overflow=hidden;rotatable=0;points=[[0,0.5],[1,0.5]];portConstraint=eastwest;" vertex="1" parent="ii4RIzOAOJ3koOXMnqcN-6">
          <mxGeometry y="182" width="160" height="26" as="geometry" />
        </mxCell>
        <mxCell id="ii4RIzOAOJ3koOXMnqcN-13" value="+ avg.runnable_load_avg" style="text;strokeColor=none;fillColor=none;align=left;verticalAlign=top;spacingLeft=4;spacingRight=4;overflow=hidden;rotatable=0;points=[[0,0.5],[1,0.5]];portConstraint=eastwest;" vertex="1" parent="ii4RIzOAOJ3koOXMnqcN-6">
          <mxGeometry y="208" width="160" height="26" as="geometry" />
        </mxCell>
        <mxCell id="ii4RIzOAOJ3koOXMnqcN-9" value="+ avg.util_sum" style="text;strokeColor=none;fillColor=none;align=left;verticalAlign=top;spacingLeft=4;spacingRight=4;overflow=hidden;rotatable=0;points=[[0,0.5],[1,0.5]];portConstraint=eastwest;" vertex="1" parent="ii4RIzOAOJ3koOXMnqcN-6">
          <mxGeometry y="234" width="160" height="26" as="geometry" />
        </mxCell>
        <mxCell id="ii4RIzOAOJ3koOXMnqcN-10" value="+ avg.util_avg" style="text;strokeColor=none;fillColor=none;align=left;verticalAlign=top;spacingLeft=4;spacingRight=4;overflow=hidden;rotatable=0;points=[[0,0.5],[1,0.5]];portConstraint=eastwest;" vertex="1" parent="ii4RIzOAOJ3koOXMnqcN-6">
          <mxGeometry y="260" width="160" height="26" as="geometry" />
        </mxCell>
        <mxCell id="ii4RIzOAOJ3koOXMnqcN-45" value="cfs_rq-&amp;gt;load.weight +=&amp;nbsp;se-&amp;gt;load.weight" style="rounded=1;whiteSpace=wrap;html=1;fontSize=12;align=left;" vertex="1" parent="1">
          <mxGeometry x="760" y="580" width="280" height="40" as="geometry" />
        </mxCell>
        <mxCell id="ii4RIzOAOJ3koOXMnqcN-54" style="edgeStyle=orthogonalEdgeStyle;rounded=0;orthogonalLoop=1;jettySize=auto;html=1;exitX=1;exitY=0.5;exitDx=0;exitDy=0;entryX=0;entryY=0.5;entryDx=0;entryDy=0;fontSize=12;strokeColor=#FF0000;" edge="1" parent="1" source="ii4RIzOAOJ3koOXMnqcN-50" target="ii4RIzOAOJ3koOXMnqcN-51">
          <mxGeometry relative="1" as="geometry" />
        </mxCell>
        <mxCell id="ii4RIzOAOJ3koOXMnqcN-50" value="attach_entity_load_avg" style="rounded=1;whiteSpace=wrap;html=1;fontSize=12;strokeColor=#FF0000;" vertex="1" parent="1">
          <mxGeometry x="120" y="680" width="160" height="40" as="geometry" />
        </mxCell>
        <mxCell id="ii4RIzOAOJ3koOXMnqcN-55" style="edgeStyle=orthogonalEdgeStyle;rounded=0;orthogonalLoop=1;jettySize=auto;html=1;exitX=1;exitY=0.5;exitDx=0;exitDy=0;entryX=0;entryY=0.5;entryDx=0;entryDy=0;fontSize=12;strokeColor=#FF0000;" edge="1" parent="1" source="ii4RIzOAOJ3koOXMnqcN-51" target="ii4RIzOAOJ3koOXMnqcN-53">
          <mxGeometry relative="1" as="geometry" />
        </mxCell>
        <mxCell id="ii4RIzOAOJ3koOXMnqcN-56" style="edgeStyle=orthogonalEdgeStyle;rounded=0;orthogonalLoop=1;jettySize=auto;html=1;exitX=1;exitY=0.5;exitDx=0;exitDy=0;entryX=0;entryY=0.5;entryDx=0;entryDy=0;fontSize=12;strokeColor=#FF0000;" edge="1" parent="1" source="ii4RIzOAOJ3koOXMnqcN-51" target="ii4RIzOAOJ3koOXMnqcN-52">
          <mxGeometry relative="1" as="geometry" />
        </mxCell>
        <mxCell id="ii4RIzOAOJ3koOXMnqcN-51" value="enqueue_load_avg" style="rounded=1;whiteSpace=wrap;html=1;fontSize=12;strokeColor=#FF0000;" vertex="1" parent="1">
          <mxGeometry x="360" y="680" width="160" height="40" as="geometry" />
        </mxCell>
        <mxCell id="ii4RIzOAOJ3koOXMnqcN-52" value="cfs_rq-&gt;avg.load_sum += se_weight(se) * se-&gt;avg.load_sum;" style="rounded=1;whiteSpace=wrap;html=1;fontSize=12;strokeColor=#FF0000;" vertex="1" parent="1">
          <mxGeometry x="600" y="720" width="340" height="40" as="geometry" />
        </mxCell>
        <mxCell id="ii4RIzOAOJ3koOXMnqcN-53" value="cfs_rq-&gt;avg.load_avg += se-&gt;avg.load_avg;" style="rounded=1;whiteSpace=wrap;html=1;fontSize=12;strokeColor=#FF0000;" vertex="1" parent="1">
          <mxGeometry x="600" y="640" width="240" height="40" as="geometry" />
        </mxCell>
        <mxCell id="ii4RIzOAOJ3koOXMnqcN-57" style="edgeStyle=orthogonalEdgeStyle;rounded=0;orthogonalLoop=1;jettySize=auto;html=1;exitX=0;exitY=0.5;exitDx=0;exitDy=0;entryX=1;entryY=0.5;entryDx=0;entryDy=0;strokeColor=#FF0000;fontSize=12;" edge="1" parent="1" source="ii4RIzOAOJ3koOXMnqcN-23" target="ii4RIzOAOJ3koOXMnqcN-11">
          <mxGeometry relative="1" as="geometry" />
        </mxCell>
        <mxCell id="ii4RIzOAOJ3koOXMnqcN-58" style="edgeStyle=orthogonalEdgeStyle;rounded=0;orthogonalLoop=1;jettySize=auto;html=1;exitX=0;exitY=0.5;exitDx=0;exitDy=0;strokeColor=#FF0000;fontSize=12;" edge="1" parent="1" source="ii4RIzOAOJ3koOXMnqcN-22" target="ii4RIzOAOJ3koOXMnqcN-12">
          <mxGeometry relative="1" as="geometry" />
        </mxCell>
      </root>
    </mxGraphModel>
  </diagram>
</mxfile>
